<svg width="24" height="24" viewBox="0 0 24 24" fill="none" xmlns="http://www.w3.org/2000/svg">
    <path class="icon_svg-fill_as_stroke"
          d="M20.7364 19.4633L18.9688 17.6952C20.2382 16.1439 21.0001 14.161 21.0001 12C21 7.02939 16.9705 3 12 3C7.02939 3 3 7.02939 3 12C3 16.9705 7.02948 20.9999 12 21C12.0114 21 12.0226 20.9996 12.0339 20.9996H20.0999C20.9016 20.9996 21.3032 20.0303 20.7364 19.4633ZM6.59998 12C6.59998 9.01765 9.01765 6.59998 12 6.59998C14.9823 6.59998 17.3999 9.01765 17.4 12C17.4 14.9823 14.9823 17.3999 12 17.3999C9.01765 17.4 6.59998 14.9823 6.59998 12Z"
          fill="#B92B27"/>
</svg>